<?xml version="1.0" encoding="UTF-8" standalone="no"?>
<svg
   xmlns:dc="http://purl.org/dc/elements/1.1/"
   xmlns:cc="http://creativecommons.org/ns#"
   xmlns:rdf="http://www.w3.org/1999/02/22-rdf-syntax-ns#"
   xmlns:svg="http://www.w3.org/2000/svg"
   xmlns="http://www.w3.org/2000/svg"
   version="1.1"
   width="64"
   height="64"
   id="svg3140">
  <defs
     id="defs11" />
  <path
     id="path3759"
     style="fill:#808080"
     d="m 2,23 0,18 c 0,18 0,18 27,18 l 6,0 c 27,0 27,0 27,-18 L 62,23 C 62,5 62,5 35,5 L 29,5 C 2,5 2,5 2,23 Z m 27,-12 6,0 c 24,0 21,0 21,12 l 0,18 c 0,12 3,12 -21,12 l -6,0 C 5,53 8,53 8,41 L 8,23 C 8,11 5,11 29,11 Z" />
  <rect
     id="rect4987"
     style="color:#bebebe;fill:#808080;fill-opacity:1"
     height="6"
     width="16"
     y="42"
     x="32" />
  <path
     id="path4984"
     d="m 16.814453,22 c -0.05417,-2.82e-4 -0.09629,0.01178 -0.125,0.03516 -0.277913,0.226268 -0.462501,2.627328 -0.572265,5.75 C 19.669603,30.705775 23,33.781585 23,34.5 c 0,0.718415 -3.330397,3.794225 -6.882812,6.714844 0.109764,3.122672 0.294352,5.523732 0.572265,5.75 C 17.608113,47.712786 32,35.995884 32,34.5 32,33.050862 18.493832,22.008727 16.814453,22 Z"
     style="color:#000000;display:inline;overflow:visible;visibility:visible;fill:#808080;fill-opacity:1;fill-rule:nonzero;stroke:none;stroke-width:3;marker:none;enable-background:accumulate" />
</svg>
