<?xml version="1.0" encoding="UTF-8" standalone="no"?>
<svg
   xmlns:dc="http://purl.org/dc/elements/1.1/"
   xmlns:cc="http://creativecommons.org/ns#"
   xmlns:rdf="http://www.w3.org/1999/02/22-rdf-syntax-ns#"
   xmlns:svg="http://www.w3.org/2000/svg"
   xmlns="http://www.w3.org/2000/svg"
   id="svg3140"
   height="64"
   width="64"
   version="1.1">
  <metadata
     id="metadata9">
    <rdf:RDF>
      <cc:Work
         rdf:about="">
        <dc:format>image/svg+xml</dc:format>
        <dc:type
           rdf:resource="http://purl.org/dc/dcmitype/StillImage" />
        <dc:title></dc:title>
      </cc:Work>
    </rdf:RDF>
  </metadata>
  <defs
     id="defs11" />
  <path
     id="path3759"
     d="M 22.470703,1.9921875 C 8.0003907,2.046875 8,3.25 8,19 l 0,26 c 0,18 -3.902e-4,17 21.599609,17 l 4.800782,0 C 56.000391,62 56,63 56,45 L 56,24 C 56,19.782886 55.988706,19.640476 55.710938,17.251953 52.480825,13.877932 41.011595,3.6932071 36.173828,2.0117188 30.132144,2.0113523 29.125728,1.9698781 22.470703,1.9921875 Z m 2.861328,5.9882813 c 4.988285,0.064302 5.387645,-0.037438 10.232422,0.03125 C 38.703848,8.9924226 47.968392,16.947247 49.986328,19.875 50.067558,21.402276 50,21.375588 50,24 l 0,21 c 0,12 1.600391,11 -17.599609,11 l -0.800782,0 C 12.399609,56 14,57 14,45 L 14,19 C 14,8.5 12.775781,7.9531249 25.332031,7.9804688 Z"
     style="fill:#808080" />
  <rect
     x="19"
     y="46"
     width="26"
     height="4"
     style="color:#bebebe;fill:#808080;fill-opacity:1"
     id="rect4987" />
  <path
     id="path4157"
     d="m 47.395978,0.842204 c -0.99453,0.1348634 -2.10649,1.0238842 -3.8765,2.8010553 L 27.227817,20.011283 c -0.241535,0.166766 -0.43631,0.40302 -0.546245,0.662564 l -6.02671,13.252992 c -0.393472,0.85832 0.275384,1.522323 1.132789,1.124587 l 13.238757,-6.090915 c 0.25501,-0.110716 0.48662,-0.303165 0.65088,-0.54082 l 16.30159,-16.378007 c 4.04575,-4.0621106 3.44145,-4.6618436 -0.18379,-8.2612767 -0.45316,-0.449945 -0.85621,-0.866235 -1.22778,-1.2189409 -1.29979,-1.2353629 -2.17678,-1.8541542 -3.1713,-1.7192902 z m -16.59315,21.881493 c 0,0 1.48356,-0.271195 1.94376,0.189234 0.45535,0.455581 0.18627,1.923383 0.18627,1.923383 0,0 1.64575,-0.388658 1.92921,0.192107 0.33202,0.680244 -1.21276,1.919875 -1.21276,1.919875 l -6.760776,3.225237 -1.42079,-1.407639 3.214215,-6.749749 c 0,0 1.250381,-1.566796 1.937471,-1.230365 0.58275,0.28534 0.1834,1.937917 0.1834,1.937917 z"
     style="fill:#808080;stroke:none" />
  <rect
     x="27"
     y="38"
     width="18"
     height="4"
     style="color:#bebebe;fill:#808080;fill-opacity:1"
     id="rect4987-4" />
  <rect
     x="35"
     y="30"
     width="10"
     height="4"
     style="color:#bebebe;fill:#808080;fill-opacity:1"
     id="rect4987-4-6" />
</svg>
