<?xml version="1.0" encoding="UTF-8" standalone="no"?>
<!-- Created with Inkscape (http://www.inkscape.org/) -->

<svg
   xmlns:dc="http://purl.org/dc/elements/1.1/"
   xmlns:cc="http://creativecommons.org/ns#"
   xmlns:rdf="http://www.w3.org/1999/02/22-rdf-syntax-ns#"
   xmlns:svg="http://www.w3.org/2000/svg"
   xmlns="http://www.w3.org/2000/svg"
   xmlns:sodipodi="http://sodipodi.sourceforge.net/DTD/sodipodi-0.dtd"
   xmlns:inkscape="http://www.inkscape.org/namespaces/inkscape"
   width="10"
   height="18"
   viewBox="0 0 2.6458333 4.7625002"
   version="1.1"
   id="svg8"
   inkscape:version="0.92+devel unknown"
   sodipodi:docname=".locdefault.svg">
  <defs
     id="defs2" />
  <sodipodi:namedview
     id="base"
     pagecolor="#ffffff"
     bordercolor="#666666"
     borderopacity="1.0"
     inkscape:pageopacity="0.0"
     inkscape:pageshadow="2"
     inkscape:zoom="4"
     inkscape:cx="-28.998791"
     inkscape:cy="36.221174"
     inkscape:document-units="px"
     inkscape:current-layer="layer1"
     showgrid="true"
     units="px"
     inkscape:document-rotation="0"
     fit-margin-top="0"
     fit-margin-left="0"
     fit-margin-right="0"
     fit-margin-bottom="0"
     inkscape:measure-start="0,0"
     inkscape:measure-end="0,0">
    <inkscape:grid
       type="xygrid"
       id="grid4306" />
  </sodipodi:namedview>
  <metadata
     id="metadata5">
    <rdf:RDF>
      <cc:Work
         rdf:about="">
        <dc:format>image/svg+xml</dc:format>
        <dc:type
           rdf:resource="http://purl.org/dc/dcmitype/StillImage" />
        <dc:title></dc:title>
      </cc:Work>
    </rdf:RDF>
  </metadata>
  <g
     inkscape:label="Ebene 1"
     inkscape:groupmode="layer"
     id="layer1"
     transform="translate(-96.790161,-104.54764)">
    <path
       style="color:#000000;font-style:normal;font-variant:normal;font-weight:normal;font-stretch:normal;font-size:medium;line-height:normal;font-family:sans-serif;font-variant-ligatures:normal;font-variant-position:normal;font-variant-caps:normal;font-variant-numeric:normal;font-variant-alternates:normal;font-variant-east-asian:normal;font-feature-settings:normal;text-indent:0;text-align:start;text-decoration:none;text-decoration-line:none;text-decoration-style:solid;text-decoration-color:#000000;letter-spacing:normal;word-spacing:normal;text-transform:none;writing-mode:lr-tb;direction:ltr;text-orientation:mixed;dominant-baseline:auto;baseline-shift:baseline;text-anchor:start;white-space:normal;shape-padding:0;clip-rule:nonzero;display:inline;overflow:visible;visibility:visible;isolation:auto;mix-blend-mode:normal;color-interpolation:sRGB;color-interpolation-filters:linearRGB;solid-color:#000000;solid-opacity:1;vector-effect:none;fill:#e0a400;fill-opacity:1;fill-rule:evenodd;stroke:none;stroke-width:0.33072916;stroke-linecap:round;stroke-linejoin:round;stroke-miterlimit:4;stroke-dasharray:none;stroke-dashoffset:0;stroke-opacity:1;color-rendering:auto;image-rendering:auto;shape-rendering:auto;text-rendering:auto;enable-background:accumulate"
       d="m 98.105594,105.67259 c -0.0563,0.003 -0.10721,0.0345 -0.13488,0.0837 l -1.058854,1.9839 c -0.0613,0.10956 0.0171,0.24464 0.14263,0.24598 h 2.117184 c 0.12552,-0.001 0.20391,-0.13642 0.14263,-0.24598 l -1.05627,-1.9839 c -0.0308,-0.0546 -0.0899,-0.0868 -0.15244,-0.0837 z m -0.12454,0.72712 h 0.26458 c 0.13229,0 0.13229,0 0.13229,0.1323 0,0.13229 -0.0477,0.35904 -0.0992,0.52916 -0.0143,0.0472 -0.033,0.13229 -0.0992,0.13229 h -0.1323 c -0.0661,1e-5 -0.0849,-0.0852 -0.0992,-0.13229 -0.0515,-0.17014 -0.0992,-0.39687 -0.0992,-0.52916 0,-0.1323 0,-0.1323 0.13229,-0.1323 z m 0.13229,0.92605 c 0.14613,0 0.26458,0.0888 0.26458,0.19843 0,0.1096 -0.11845,0.19844 -0.26458,0.19844 -0.14613,0 -0.26458,-0.0888 -0.26458,-0.19844 0,-0.10959 0.11845,-0.19843 0.26458,-0.19843 z"
       id="path4335"
       inkscape:connector-curvature="0"
       sodipodi:nodetypes="ccccccccssscsccsssssss" />
  </g>
</svg>
