<?xml version="1.0" encoding="UTF-8" standalone="no"?>
<svg
   xmlns:dc="http://purl.org/dc/elements/1.1/"
   xmlns:cc="http://creativecommons.org/ns#"
   xmlns:rdf="http://www.w3.org/1999/02/22-rdf-syntax-ns#"
   xmlns:svg="http://www.w3.org/2000/svg"
   xmlns="http://www.w3.org/2000/svg"
   id="svg3140"
   height="64"
   width="64"
   version="1.1">
  <defs
     id="defs11" />
  <metadata
     id="metadata3145">
    <rdf:RDF>
      <cc:Work
         rdf:about="">
        <dc:format>image/svg+xml</dc:format>
        <dc:type
           rdf:resource="http://purl.org/dc/dcmitype/StillImage" />
        <dc:title></dc:title>
      </cc:Work>
    </rdf:RDF>
  </metadata>
  <rect
     x="0"
     y="-26.000015"
     width="90"
     height="90"
     style="color:#000000;fill:none"
     id="rect4198" />
  <g
     style="fill:#808080"
     id="text3006"
     transform="translate(-12.999965,-975.36647)">
    <path
       d="m 43.205,988.07 q -2.6177,0 -5.0111,0.67314 -2.3934,0.59833 -5.0111,2.0194 l -2.5429,-6.9557 q 2.7673,-1.5706 6.2825,-2.4682 3.59,-0.9723 7.3296,-0.9723 4.4875,0 7.4044,1.2715 2.9169,1.1967 4.6371,3.0665 1.7202,1.8698 2.3934,4.1136 0.67313,2.2438 0.67313,4.338 0,2.5429 -0.9723,4.5623 -0.89751,2.0194 -2.3186,3.73956 -1.42109,1.7202 -3.0665,3.2909 -1.6454,1.4958 -3.0665,3.1413 -1.4211,1.5706 -2.3934,3.3656 -0.89751,1.795 -0.89751,4.0388 0,0.374 0,0.8975 0,0.4488 0.07479,0.8975 l -7.7784,0 q -0.14958,-0.7479 -0.22438,-1.5706 -0.07479,-0.8975 -0.07479,-1.6455 0,-2.4681 0.82271,-4.4127 0.82272,-1.9446 2.0942,-3.59 1.2715,-1.6455 2.6925,-3.0665 1.4958,-1.4211 2.7673,-2.84206 1.2715,-1.421 2.0942,-2.9169 0.82271,-1.4958 0.82271,-3.2908 0,-2.4682 -1.7202,-4.0388 -1.6454,-1.6454 -5.0111,-1.6454 z m 5.8338,40.388 q 0,2.6178 -1.7202,4.2632 -1.7202,1.6454 -4.2632,1.6454 -2.4681,0 -4.2632,-1.6454 -1.7202,-1.6454 -1.7202,-4.2632 0,-2.6177 1.7202,-4.2631 1.795,-1.7203 4.2632,-1.7203 2.5429,0 4.2632,1.7203 1.7202,1.6454 1.7202,4.2631 z"
       id="path4146" />
  </g>
</svg>
