<?xml version="1.0" encoding="UTF-8" standalone="no"?>
<!-- Created with Inkscape (http://www.inkscape.org/) -->

<svg
   xmlns:dc="http://purl.org/dc/elements/1.1/"
   xmlns:cc="http://creativecommons.org/ns#"
   xmlns:rdf="http://www.w3.org/1999/02/22-rdf-syntax-ns#"
   xmlns:svg="http://www.w3.org/2000/svg"
   xmlns="http://www.w3.org/2000/svg"
   xmlns:sodipodi="http://sodipodi.sourceforge.net/DTD/sodipodi-0.dtd"
   xmlns:inkscape="http://www.inkscape.org/namespaces/inkscape"
   width="64"
   height="64"
   viewBox="0 0 64.000001 64.000001"
   id="svg2"
   version="1.1"
   inkscape:version="0.91 r13725"
   sodipodi:docname="icon.svg"
   inkscape:export-filename="/home/andreas/.wine_applications/SketchUp/Plugins/Plugins Ruby 2.0/ae_Console/images/icon_64.png"
   inkscape:export-xdpi="90"
   inkscape:export-ydpi="90">
  <defs
     id="defs4" />
  <sodipodi:namedview
     id="base"
     pagecolor="#ffffff"
     bordercolor="#666666"
     borderopacity="1.0"
     inkscape:pageopacity="0.0"
     inkscape:pageshadow="2"
     inkscape:zoom="11.313709"
     inkscape:cx="32.469821"
     inkscape:cy="21.392646"
     inkscape:document-units="px"
     inkscape:current-layer="layer1"
     showgrid="true"
     units="px"
     objecttolerance="21"
     showguides="true"
     gridtolerance="20">
    <inkscape:grid
       type="xygrid"
       id="grid4136"
       empspacing="4"
       dotted="false"
       spacingx="4.0000001"
       spacingy="4.0000001" />
    <inkscape:grid
       type="xygrid"
       id="grid4140"
       empspacing="1"
       dotted="true" />
  </sodipodi:namedview>
  <metadata
     id="metadata7">
    <rdf:RDF>
      <cc:Work
         rdf:about="">
        <dc:format>image/svg+xml</dc:format>
        <dc:type
           rdf:resource="http://purl.org/dc/dcmitype/StillImage" />
        <dc:title></dc:title>
      </cc:Work>
    </rdf:RDF>
  </metadata>
  <g
     inkscape:label="Ebene 1"
     inkscape:groupmode="layer"
     id="layer1"
     transform="translate(0,-988.36216)">
    <path
       style="color:#000000;display:inline;overflow:visible;visibility:visible;opacity:1;fill:#800000;fill-opacity:1;fill-rule:nonzero;stroke:none;stroke-width:1;stroke-linecap:round;stroke-linejoin:round;stroke-miterlimit:4;stroke-dasharray:none;stroke-dashoffset:0;stroke-opacity:0.98431373;marker:none;enable-background:accumulate"
       d="M 60.578125 16 L 51.052734 21.332031 L 51.052734 31.998047 L 60.578125 26.666016 L 60.580078 16.001953 L 60.578125 16 z M 41.527344 26.666016 L 32 32 L 32 42.666016 L 41.527344 37.332031 L 41.527344 26.666016 z M 60.578125 37.333984 L 51.052734 42.666016 L 51.052734 53.332031 L 60.578125 48 L 60.580078 37.335938 L 60.578125 37.333984 z M 41.527344 48 L 32 53.333984 L 32 64 L 41.527344 58.666016 L 41.527344 48 z "
       transform="translate(0,988.36216)"
       id="path4162" />
    <path
       style="color:#000000;display:inline;overflow:visible;visibility:visible;opacity:1;fill:#d60000;fill-opacity:1;fill-rule:nonzero;stroke:none;stroke-width:1;stroke-linecap:round;stroke-linejoin:round;stroke-miterlimit:4;stroke-dasharray:none;stroke-dashoffset:0;stroke-opacity:0.98431373;marker:none;enable-background:accumulate"
       d="m 3.421875,16 0,32 9.525391,5.332031 0,-32 z m 19.050781,10.666016 0,7.654296 C 24,33 25.473382,32.002176 27.5,32 c 2.026618,-0.0022 3.218262,0.707214 4.5,1.457031 L 32,32 Z m 4.56836,13.957031 C 25.290192,40.686047 23,42 22.472656,43.177734 l 0,15.482422 L 32,63.994141 32,42.503906 c -1.596151,-1.0835 -3.20816,-1.944259 -4.958984,-1.880859 z"
       transform="translate(0,988.36216)"
       id="path4836"
       inkscape:connector-curvature="0"
       sodipodi:nodetypes="ccccccczccccccccc" />
    <path
       style="color:#000000;clip-rule:nonzero;display:inline;overflow:visible;visibility:visible;opacity:1;isolation:auto;mix-blend-mode:normal;color-interpolation:sRGB;color-interpolation-filters:linearRGB;solid-color:#000000;solid-opacity:1;fill:#000000;fill-opacity:0.25098039;fill-rule:nonzero;stroke:none;stroke-width:1;stroke-linecap:round;stroke-linejoin:round;stroke-miterlimit:4;stroke-dasharray:none;stroke-dashoffset:0;stroke-opacity:0.98431373;marker:none;color-rendering:auto;image-rendering:auto;shape-rendering:auto;text-rendering:auto;enable-background:accumulate"
       d="m -38,988.36216 -28.578125,16.00004 28.578125,16 28.578125,-16 L -38,988.36216 Z"
       id="path4144"
       inkscape:connector-curvature="0" />
    <path
       inkscape:connector-curvature="0"
       style="color:#000000;clip-rule:nonzero;display:inline;overflow:visible;visibility:visible;opacity:1;isolation:auto;mix-blend-mode:normal;color-interpolation:sRGB;color-interpolation-filters:linearRGB;solid-color:#000000;solid-opacity:1;fill:#000000;fill-opacity:0.25098039;fill-rule:nonzero;stroke:none;stroke-width:1;stroke-linecap:round;stroke-linejoin:round;stroke-miterlimit:4;stroke-dasharray:none;stroke-dashoffset:0;stroke-opacity:0.98431373;marker:none;color-rendering:auto;image-rendering:auto;shape-rendering:auto;text-rendering:auto;enable-background:accumulate"
       d="m -78.94727,1009.6942 -9.52539,5.334 0,32 9.52539,-5.3321 0,-32.0019 z"
       id="rect4199-5" />
    <path
       inkscape:connector-curvature="0"
       style="color:#000000;display:inline;overflow:visible;visibility:visible;opacity:1;fill:#000000;fill-opacity:0.25098039;fill-rule:nonzero;stroke:none;stroke-width:1;stroke-linecap:round;stroke-linejoin:round;stroke-miterlimit:4;stroke-dasharray:none;stroke-dashoffset:0;stroke-opacity:0.98431373;marker:none;enable-background:accumulate"
       d="m -69.42188,1004.3622 -9.52539,5.332 0,32.002 9.52735,-5.3339 0,-31.9981 0,0 -0.002,0 z"
       id="path4162-2" />
    <path
       inkscape:connector-curvature="0"
       style="color:#000000;clip-rule:nonzero;display:inline;overflow:visible;visibility:visible;opacity:1;isolation:auto;mix-blend-mode:normal;color-interpolation:sRGB;color-interpolation-filters:linearRGB;solid-color:#000000;solid-opacity:1;fill:#000000;fill-opacity:0.25098039;fill-rule:nonzero;stroke:none;stroke-width:1;stroke-linecap:round;stroke-linejoin:round;stroke-miterlimit:4;stroke-dasharray:none;stroke-dashoffset:0;stroke-opacity:0.98431373;marker:none;color-rendering:auto;image-rendering:auto;shape-rendering:auto;text-rendering:auto;enable-background:accumulate"
       d="m -88.47266,1015.0282 -9.52734,5.334 0,32.0001 9.52734,-5.3341 0,-32 z"
       id="rect4199-7-4" />
    <path
       style="color:#000000;display:inline;overflow:visible;visibility:visible;opacity:1;fill:#ff5555;fill-opacity:1;fill-rule:nonzero;stroke:none;stroke-width:1;stroke-linecap:round;stroke-linejoin:round;stroke-miterlimit:4;stroke-dasharray:none;stroke-dashoffset:0;stroke-opacity:0.98431373;marker:none;enable-background:accumulate"
       d="M 31.996094 0 L 3.421875 15.998047 L 12.951172 21.333984 L 32 10.669922 L 51.048828 21.333984 L 60.578125 15.998047 L 32.003906 0 L 32 0.001953125 L 31.996094 0 z M 32 21.328125 L 22.474609 26.662109 L 32 31.996094 L 41.525391 26.662109 L 32 21.328125 z "
       transform="translate(0,988.36216)"
       id="path4144-1" />
    <path
       inkscape:connector-curvature="0"
       style="color:#000000;display:inline;overflow:visible;visibility:visible;opacity:1;fill:#000000;fill-opacity:0.25098039;fill-rule:nonzero;stroke:none;stroke-width:1;stroke-linecap:round;stroke-linejoin:round;stroke-miterlimit:4;stroke-dasharray:none;stroke-dashoffset:0;stroke-opacity:0.98431373;marker:none;enable-background:accumulate"
       d="m -38,1020.3622 -28.578125,-16 0,32 28.578125,16 0,-32 z"
       id="path4173-5" />
    <path
       inkscape:connector-curvature="0"
       style="color:#000000;display:inline;overflow:visible;visibility:visible;opacity:1;fill:#000000;fill-opacity:0.25098039;fill-rule:nonzero;stroke:none;stroke-width:1;stroke-linecap:round;stroke-linejoin:round;stroke-miterlimit:4;stroke-dasharray:none;stroke-dashoffset:0;stroke-opacity:0.98431373;marker:none;enable-background:accumulate"
       d="m -38,1020.3622 28.578125,-16 0,32 -28.578125,16 0,-32 z"
       id="path4173-5-0" />
    <path
       inkscape:connector-curvature="0"
       style="color:#000000;display:inline;overflow:visible;visibility:visible;opacity:1;fill:#d60000;fill-opacity:1;fill-rule:nonzero;stroke:none;stroke-width:1;stroke-linecap:round;stroke-linejoin:round;stroke-miterlimit:4;stroke-dasharray:none;stroke-dashoffset:0;stroke-opacity:0.98431373;marker:none;enable-background:accumulate"
       d="m -66.578125,1004.3622 0,32 9.525391,5.332 0,-32 -9.525391,-5.332 z m 19.050781,10.666 0,7.9883 c 0.502992,-0.1003 1.01446,-0.152 1.527344,-0.1543 4.418278,0 8,8 8,8 l 0,-10.5 -9.527344,-5.334 z m 0,15.1035 0,16.8965 9.527344,5.334 0,-10.5 0,-0.5 -0.01758,0 a 12,12 0 0 0 -9.509764,-11.2305 z"
       id="path4173-6" />
  </g>
</svg>
