<?xml version="1.0" encoding="UTF-8" standalone="no"?>
<svg
   xmlns:dc="http://purl.org/dc/elements/1.1/"
   xmlns:cc="http://creativecommons.org/ns#"
   xmlns:rdf="http://www.w3.org/1999/02/22-rdf-syntax-ns#"
   xmlns:svg="http://www.w3.org/2000/svg"
   xmlns="http://www.w3.org/2000/svg"
   id="svg3140"
   height="64"
   width="64"
   version="1.1">
  <metadata
     id="metadata9">
    <rdf:RDF>
      <cc:Work
         rdf:about="">
        <dc:format>image/svg+xml</dc:format>
        <dc:type
           rdf:resource="http://purl.org/dc/dcmitype/StillImage" />
        <dc:title></dc:title>
      </cc:Work>
    </rdf:RDF>
  </metadata>
  <defs
     id="defs11" />
  <path
     id="path3759"
     d="M 23.818359 2 C 4.1819956 2 2 2 2 14 L 2 26 C 2 38 4.1819956 38 23.818359 38 L 24 38 L 24 32 C 9.2306244 31.999562 8 31.923834 8 25.121094 L 8 14.878906 C 8 8.0504145 9.2388037 8 24.136719 8 L 27.863281 8 C 42.761808 8 44 8.0504145 44 14.878906 L 44 23.818359 L 49.839844 30.1875 C 49.954624 28.982573 50 27.606066 50 26 L 50 14 C 50 2 47.818005 2 28.181641 2 L 23.818359 2 z "
     style="fill:#808080" />
  <rect
     transform="matrix(0.92387953,-0.38268343,0.38268343,0.92387953,0,0)"
     y="49.852848"
     x="15.499487"
     height="24"
     width="8"
     id="rect4150"
     style="color:#000000;display:inline;overflow:visible;visibility:visible;opacity:1;fill:#808080;fill-opacity:1;fill-rule:nonzero;stroke:none;stroke-width:7;stroke-linecap:round;stroke-linejoin:round;stroke-miterlimit:4;stroke-dasharray:none;stroke-dashoffset:0;stroke-opacity:1;marker:none;enable-background:accumulate" />
  <path
     id="rect4152"
     d="M 27,10 60,46 40,46 27,58 Z"
     style="color:#000000;display:inline;overflow:visible;visibility:visible;opacity:1;fill:#808080;fill-opacity:1;fill-rule:nonzero;stroke:none;stroke-width:7;stroke-linecap:round;stroke-linejoin:round;stroke-miterlimit:4;stroke-dasharray:none;stroke-dashoffset:0;stroke-opacity:1;marker:none;enable-background:accumulate" />
</svg>
