<?xml version="1.0" encoding="UTF-8" standalone="no"?>
<svg
   xmlns:dc="http://purl.org/dc/elements/1.1/"
   xmlns:cc="http://creativecommons.org/ns#"
   xmlns:rdf="http://www.w3.org/1999/02/22-rdf-syntax-ns#"
   xmlns:svg="http://www.w3.org/2000/svg"
   xmlns="http://www.w3.org/2000/svg"
   version="1.1"
   width="64"
   height="64"
   id="svg7384">
  <defs
     id="defs9" />
  <metadata
     id="metadata90">
    <rdf:RDF>
      <cc:Work
         rdf:about="">
        <dc:format>image/svg+xml</dc:format>
        <dc:type
           rdf:resource="http://purl.org/dc/dcmitype/StillImage" />
        <dc:title>Gnome Symbolic Icon Theme</dc:title>
      </cc:Work>
    </rdf:RDF>
  </metadata>
  <title
     id="title9167">Gnome Symbolic Icon Theme</title>
  <path
     id="path35543-6-4"
     style="color:#000000;fill:#808080;fill-opacity:1"
     d="m 29.532565,5.7987392 -1.782677,6.7013948 c -0.260876,1.344546 -2.908515,2.177204 -3.875083,1.250026 L 18.605633,9.3236164 C 17.380164,8.1480882 13.885836,10.853685 14.610773,12.37851 l 2.514088,6.371357 c 0.573418,1.206124 -1.043374,3.428948 -2.375051,3.25007 L 7.9133175,21.543003 C 6.25234,21.319893 4.8807562,25.543837 6.3858707,26.360148 l 5.7388823,3.63976 c 1.223581,0.663619 1.126826,3.388942 0,4.000086 L 6.3858707,37.639755 C 4.8806161,38.456143 6.2525109,42.679988 7.9133175,42.4569 L 14.74981,41.999966 c 1.331676,-0.178878 2.948469,2.043945 2.375051,3.250069 l -2.514088,6.371358 c -0.724937,1.524825 2.769391,4.230421 3.99486,3.054893 l 5.269172,-4.426544 c 0.966568,-0.927178 3.614201,-0.09455 3.875083,1.250027 l 1.782677,6.701395 c 0.324357,1.671724 4.633045,1.555387 4.934829,0 l 1.782676,-6.701395 c 0.260876,-1.344547 2.908515,-2.177205 3.875083,-1.250027 l 5.269173,4.426544 c 1.225469,1.175528 4.719797,-1.530068 3.99486,-3.054893 l -2.514088,-6.371358 c -0.573418,-1.206124 1.043374,-3.428947 2.375051,-3.250069 l 6.836492,0.456934 c 1.660978,0.223111 3.032562,-4.000834 1.527447,-4.817145 l -5.738883,-3.639761 c -1.223582,-0.663619 -1.126826,-3.388943 0,-4.000086 l 5.738883,-3.63976 c 1.505255,-0.816388 0.133359,-5.040233 -1.527447,-4.817145 l -6.836492,0.456934 c -1.331678,0.178878 -2.948469,-2.043946 -2.375051,-3.25007 L 49.389186,12.37851 C 50.114123,10.853685 46.619795,8.1480883 45.394326,9.3236164 L 40.125153,13.75016 c -0.966568,0.927178 -3.614201,0.09456 -3.875083,-1.250026 L 34.467394,5.7987392 c -0.324357,-1.6717247 -4.633045,-1.5553869 -4.934829,0 z m 2.467414,14.2015548 c 6.627342,0 12.000257,5.372915 12.000257,12.000257 0,6.627342 -5.372915,12.000257 -12.000257,12.000257 -6.627342,0 -12.000257,-5.372915 -12.000257,-12.000257 0,-6.627342 5.372915,-12.000257 12.000257,-12.000257 z" />
</svg>
