<?xml version="1.0" encoding="UTF-8" standalone="no"?>
<svg
   xmlns:dc="http://purl.org/dc/elements/1.1/"
   xmlns:cc="http://creativecommons.org/ns#"
   xmlns:rdf="http://www.w3.org/1999/02/22-rdf-syntax-ns#"
   xmlns:svg="http://www.w3.org/2000/svg"
   xmlns="http://www.w3.org/2000/svg"
   xmlns:sodipodi="http://sodipodi.sourceforge.net/DTD/sodipodi-0.dtd"
   xmlns:inkscape="http://www.inkscape.org/namespaces/inkscape"
   version="1.1"
   id="svg3140"
   height="64"
   width="64"
   sodipodi:docname="tip.svg"
   inkscape:version="0.92+devel (unknown)">
  <sodipodi:namedview
     pagecolor="#ffffff"
     bordercolor="#666666"
     inkscape:document-rotation="0"
     borderopacity="1"
     objecttolerance="10"
     gridtolerance="10"
     guidetolerance="10"
     inkscape:pageopacity="0"
     inkscape:pageshadow="2"
     inkscape:window-width="640"
     inkscape:window-height="480"
     id="namedview841"
     showgrid="false"
     inkscape:zoom="8.4850909"
     inkscape:cx="21.189732"
     inkscape:cy="33.217437"
     inkscape:current-layer="svg3140" />
  <metadata
     id="metadata14">
    <rdf:RDF>
      <cc:Work
         rdf:about="">
        <dc:format>image/svg+xml</dc:format>
        <dc:type
           rdf:resource="http://purl.org/dc/dcmitype/StillImage" />
        <dc:title />
      </cc:Work>
    </rdf:RDF>
  </metadata>
  <defs
     id="defs3142" />
  <path
     id="path932"
     style="opacity:1;fill:#808080;fill-opacity:1;stroke:none;stroke-width:0.577875;stop-opacity:1"
     d="m 32.060421,6.0899668 c 0.216073,5.197e-4 0.432408,0.00626 0.648417,0.015237 1.820475,0.058776 3.871616,0.4826676 5.636829,1.2316544 3.774428,1.4901955 6.954222,4.6950238 7.992631,8.6655998 0.224295,1.449043 0.115696,2.935491 0.0838,4.397555 -0.167989,1.509268 -0.826484,2.921269 -1.374708,4.324754 -2.71835,5.298389 -6.652221,9.964922 -8.656286,15.626356 -0.443861,-0.0018 -0.887693,-0.0041 -1.331542,-0.0059 0.0575,-0.213838 0.110369,-0.475552 0.173537,-0.75507 0.0011,-0.0051 0.0022,-0.01018 0.0034,-0.01525 0.629167,-2.522527 1.25618,-5.042765 1.852136,-7.567691 0.06436,-0.272382 0.28051,-0.482925 0.554489,-0.540104 1.288807,-0.269407 2.344718,-1.775553 1.91731,-3.034699 -0.0043,-0.01342 -0.0083,-0.02696 -0.01185,-0.04062 -0.24811,-0.90329 -1.56558,-1.328867 -2.314321,-0.776238 -0.02951,0.02181 -0.06064,0.04133 -0.09312,0.05841 -0.155664,0.08145 -0.357395,0.317202 -0.555299,0.65011 -0.197893,0.332909 -0.355717,0.724564 -0.706823,1.091134 -0.266938,0.278176 -0.70546,0.297192 -0.995477,0.04317 0.0052,0.0046 -0.403537,-0.193472 -0.788939,-0.454568 -0.192704,-0.130548 -0.43054,-0.297936 -0.56292,-0.663656 -0.13238,-0.365714 0.01127,-0.844114 0.247175,-1.116532 l -0.08803,0.127822 c 0.43126,-0.793262 0.352207,-1.895474 -0.316592,-2.432836 -0.01037,-0.0079 -0.02053,-0.0161 -0.03045,-0.02456 -0.347165,-0.311309 -0.803524,-0.498338 -1.219803,-0.481655 -0.01353,5.69e-4 -0.02708,7.57e-4 -0.04062,5.63e-4 -1.104118,-0.01803 -2.060559,1.326977 -1.72516,2.376122 0.166821,0.323923 0.364413,0.64781 0.34706,1.148696 -0.01826,0.526884 -0.406172,0.992444 -0.898128,1.299377 -0.248516,0.15505 -0.475025,0.272711 -0.777087,0.302201 -0.302067,0.02947 -0.676918,-0.126139 -0.860041,-0.321669 -0.362433,-0.386998 -0.358588,-0.660316 -0.450341,-0.849039 -0.201005,-0.385709 -0.57338,-0.726876 -0.976859,-0.897291 -0.403476,-0.170416 -0.804053,-0.183742 -1.180861,0.0059 -0.0098,0.0048 -0.01965,0.0092 -0.02963,0.01353 -0.894865,0.400022 -1.176739,1.727283 -0.675509,2.570813 0.0062,0.01 0.01211,0.02016 0.01778,0.03046 0.358259,0.676802 1.042586,1.209697 1.792033,1.406881 0.257627,0.0679 0.45683,0.272307 0.518059,0.531599 0.651848,2.763586 1.353789,5.521378 2.040907,8.288063 -0.519187,-0.0023 -1.038363,-0.0046 -1.557559,-0.0068 -0.956922,-2.790593 -2.457875,-5.345481 -4.009826,-7.839386 -2.073704,-3.471804 -4.560583,-6.777226 -5.832368,-10.658223 -0.474259,-1.131469 -0.377525,-2.356144 -0.389389,-3.554441 -0.194714,-2.400473 0.928496,-4.682238 2.334641,-6.55528 2.726262,-3.5537055 7.230445,-5.4544058 11.641883,-5.6004308 0.215998,-0.010093 0.431499,-0.014901 0.647567,-0.01439 z m 0.233636,23.6079802 c 0.190257,0.0091 0.369193,0.09308 0.497741,0.233634 0.217195,0.237022 0.613056,0.487999 1.049653,0.738993 0.43659,0.25099 0.911292,0.488779 1.303607,0.910831 0.16303,0.175027 0.228667,0.419502 0.175223,0.652648 -0.617484,2.694109 -1.205102,5.398222 -1.796263,8.104375 -0.928882,-0.0041 -1.857794,-0.0085 -2.786672,-0.01271 -0.59839,-2.751622 -1.195035,-5.500508 -1.820816,-8.240658 -0.08673,-0.380019 0.144216,-0.760175 0.52144,-0.858347 0.303853,-0.07938 0.722478,-0.346073 1.158855,-0.661114 0.436388,-0.31504 0.867021,-0.686505 1.483065,-0.845651 0.06988,-0.01802 0.142078,-0.02544 0.214167,-0.02202 z M 31.304042,2.0203919 C 24.503295,2.2012175 17.618279,6.0310381 14.706591,12.323787 c -1.993736,4.098103 -1.777144,9.059637 0.258827,13.097534 1.876964,4.113707 4.679159,7.795882 6.826359,11.658642 1.285978,2.634185 2.534224,4.705263 3.021937,7.397475 l 14.563646,0.07377 c 0.615126,-3.26161 2.018922,-6.306557 3.777734,-9.102338 2.378422,-3.967931 5.249558,-7.732205 6.718232,-12.168051 C 51.005112,19.964105 50.977412,16.25492 49.594027,13.015874 46.693543,5.9008139 38.809819,1.6681661 31.304042,2.0203919 Z M 30.358116,27.671633 c -0.0086,-0.01682 -0.0178,-0.03398 -0.02624,-0.05079 l 0.03554,0.0855 c -0.0041,-0.01138 -0.0057,-0.02323 -0.0093,-0.03473 z m 4.725993,22.645267 -0.07872,4.739541 -0.131207,0.269194 c -0.23282,0.161109 -0.501978,0.272543 -0.698356,0.480804 -0.187158,0.156555 -0.332874,0.351202 -0.470658,0.545993 -0.205272,0.330533 -0.353555,0.693845 -0.47573,1.063199 -0.241245,0.323317 -0.660604,0.459268 -1.049653,0.501976 -0.501243,0.04109 -1.060476,-0.09082 -1.400961,-0.483353 -0.131967,-0.388129 -0.276192,-0.778502 -0.50874,-1.118224 -0.156767,-0.24458 -0.366975,-0.442344 -0.575623,-0.641642 -0.206729,-0.116343 -0.397243,-0.268088 -0.613709,-0.362302 l -0.0018,-4.975717 z m -10.493452,-4.044308 1.26312,12.796081 1.228605,0.09994 c 0.377953,0.851937 1.105778,1.508075 1.879802,2.001438 2.164044,1.323129 5.213692,1.056608 7.030334,-0.744979 0.370896,-0.366053 0.720186,-0.768447 0.922145,-1.254909 l 1.228605,-0.09822 1.194298,-12.842658 z"
     inkscape:connector-curvature="0"
     sodipodi:nodetypes="cccccccccccccccccccccccccccccsccccccccccccccccccccccccccccccccccccccccccccccccccccccccccccccccccccc" />
</svg>
