<?xml version="1.0" encoding="UTF-8" standalone="yes"?><svg xmlns="http://www.w3.org/2000/svg" xmlns:xlink="http://www.w3.org/1999/xlink" height="625.6px" style="width:1923px;height:625px;" version="1.1" viewBox="0 0 1923 625" width="1923.2px"><defs><filter height="300%" id="f1" width="300%" x="-1" y="-1"><feGaussianBlur result="blurOut" stdDeviation="3.200000047683716"/><feColorMatrix in="blurOut" result="blurOut2" type="matrix" values="0 0 0 0 0 0 0 0 0 0 0 0 0 0 0 0 0 0 .4 0"/><feOffset dx="6.400000095367432" dy="6.400000095367432" in="blurOut2" result="blurOut3"/><feBlend in="SourceGraphic" in2="blurOut3" mode="normal"/></filter></defs><g><polygon fill="#FFFFFF" filter="url(#f1)" points="35.2,38.4,108.8,38.4,120,71.5266,1073.6,71.5266,1073.6,614.4,35.2,614.4,35.2,38.4" style="stroke: #000000; stroke-width: 3.200000047683716;"/><line style="stroke: #000000; stroke-width: 3.200000047683716;" x1="35.2" x2="120" y1="71.5266" y2="71.5266"/><text fill="#000000" font-family="sans-serif" font-size="22.4" font-weight="bold" lengthAdjust="spacingAndGlyphs" textLength="62.4" x="41.6" y="60.9922">Ruby</text><polygon fill="#FFFFFF" filter="url(#f1)" points="1112,82.4,1145.6,82.4,1156.8,115.5266,1912,115.5266,1912,549.6,1112,549.6,1112,82.4" style="stroke: #000000; stroke-width: 3.200000047683716;"/><line style="stroke: #000000; stroke-width: 3.200000047683716;" x1="1112" x2="1156.8" y1="115.5266" y2="115.5266"/><text fill="#000000" font-family="sans-serif" font-size="22.4" font-weight="bold" lengthAdjust="spacingAndGlyphs" textLength="22.4" x="1118.4" y="104.9922">JS</text><rect fill="#FEFECE" filter="url(#f1)" height="140.1938" style="stroke: #A80036; stroke-width: 2.400000035762787;" width="240" x="541.6" y="91.2"/><text fill="#000000" font-family="sans-serif" font-size="19.2" lengthAdjust="spacingAndGlyphs" textLength="140.8" x="595.2" y="111.0219">ConsolePlugin</text><line style="stroke: #A80036; stroke-width: 2.400000035762787;" x1="543.2" x2="780" y1="117.7656" y2="117.7656"/><ellipse cx="559.2" cy="135.3656" fill="none" rx="4.8" ry="4.8" style="stroke: #038048; stroke-width: 1.600000023841858;"/><text fill="#000000" font-family="sans-serif" font-size="16" lengthAdjust="spacingAndGlyphs" textLength="164.8" x="573.6" y="138.4148">Settings @@settings</text><text fill="#000000" font-family="sans-serif" font-size="16" lengthAdjust="spacingAndGlyphs" textLength="9.6" x="573.6" y="155.6172">..</text><text fill="#000000" font-family="sans-serif" font-size="16" lengthAdjust="spacingAndGlyphs" textLength="51.2" x="573.6" y="172.4219">open()</text><text fill="#000000" font-family="sans-serif" font-size="16" lengthAdjust="spacingAndGlyphs" textLength="51.2" x="573.6" y="189.2266">close()</text><text fill="#000000" font-family="sans-serif" font-size="16" lengthAdjust="spacingAndGlyphs" textLength="9.6" x="573.6" y="206.0313">..</text><text fill="#000000" font-family="sans-serif" font-size="16" lengthAdjust="spacingAndGlyphs" textLength="198.4" x="573.6" y="222.8359">register_feature(Feature)</text><rect fill="#FEFECE" filter="url(#f1)" height="237.4813" style="stroke: #A80036; stroke-width: 2.400000035762787;" width="249.6" x="396" y="352"/><ellipse cx="477.2" cy="377.6" fill="#ADD1B2" rx="17.6" ry="17.6" style="stroke: #A80036; stroke-width: 1.600000023841858;"/><path d="M482,385.6 Q481.025,386.4 479.975,386.8 Q478.925,387.2 477.75,387.2 Q473.575,387.2 471.3875,384.7375 Q469.2,382.275 469.2,377.6 Q469.2,372.925 471.3875,370.4625 Q473.575,368 477.75,368 Q478.925,368 480,368.4 Q481.075,368.8 482,369.6 L482,374.4 Q481.025,372.75 480.1,371.975 Q479.175,371.2 478.2,371.2 Q476.125,371.2 475.0625,372.8125 Q474,374.425 474,377.6 Q474,380.775 475.0625,382.3875 Q476.125,384 478.2,384 Q479.175,384 480.1,383.225 Q481.025,382.45 482,380.8 L482,385.6 Z "/><text fill="#000000" font-family="sans-serif" font-size="19.2" lengthAdjust="spacingAndGlyphs" textLength="80" x="510" y="384.1391">Console</text><line style="stroke: #A80036; stroke-width: 2.400000035762787;" x1="397.6" x2="644" y1="403.2" y2="403.2"/><ellipse cx="413.6" cy="421.2426" fill="none" rx="4.8" ry="4.8" style="stroke: #038048; stroke-width: 1.600000023841858;"/><text fill="#000000" font-family="sans-serif" font-size="17.6" lengthAdjust="spacingAndGlyphs" textLength="142.4" x="428" y="424.8367">Bridge @bridge</text><ellipse cx="413.6" cy="439.7277" fill="none" rx="4.8" ry="4.8" style="stroke: #038048; stroke-width: 1.600000023841858;"/><text fill="#000000" font-family="sans-serif" font-size="17.6" lengthAdjust="spacingAndGlyphs" textLength="208" x="428" y="443.3219">UI::HtmlDialog @dialog</text><line style="stroke: #A80036; stroke-width: 1.600000023841858; stroke-dasharray: 1.0,2.0;" x1="397.6" x2="644" y1="452.9703" y2="452.9703"/><text fill="#000000" font-family="sans-serif" font-size="17.6" lengthAdjust="spacingAndGlyphs" textLength="60.8" x="405.6" y="474.607">show()</text><text fill="#000000" font-family="sans-serif" font-size="17.6" lengthAdjust="spacingAndGlyphs" textLength="60.8" x="405.6" y="493.0922">close()</text><line style="stroke: #A80036; stroke-width: 1.600000023841858; stroke-dasharray: 1.0,2.0;" x1="397.6" x2="644" y1="502.7406" y2="502.7406"/><text fill="#000000" font-family="sans-serif" font-size="17.6" lengthAdjust="spacingAndGlyphs" textLength="104" x="405.6" y="524.3774">puts(*args)</text><text fill="#000000" font-family="sans-serif" font-size="17.6" lengthAdjust="spacingAndGlyphs" textLength="105.6" x="405.6" y="542.8625">print(*args)</text><text fill="#000000" font-family="sans-serif" font-size="17.6" lengthAdjust="spacingAndGlyphs" textLength="108.8" x="405.6" y="561.3477">warn(*args)</text><text fill="#000000" font-family="sans-serif" font-size="17.6" lengthAdjust="spacingAndGlyphs" textLength="145.6" x="405.6" y="579.8328">error(exception)</text><rect fill="#FEFECE" filter="url(#f1)" height="132.2555" style="stroke: #A80036; stroke-width: 2.400000035762787;" width="281.6" x="60.8" y="404"/><ellipse cx="158" cy="429.6" fill="#B4A7E5" rx="17.6" ry="17.6" style="stroke: #A80036; stroke-width: 1.600000023841858;"/><path d="M152.4,423.2 L152.4,420 L163.6,420 L163.6,423.2 L160.4,423.2 L160.4,436 L163.6,436 L163.6,439.2 L152.4,439.2 L152.4,436 L155.6,436 L155.6,423.2 L152.4,423.2 Z "/><text fill="#000000" font-family="sans-serif" font-size="19.2" font-style="italic" lengthAdjust="spacingAndGlyphs" textLength="78.4" x="190.8" y="436.1391">Feature</text><line style="stroke: #A80036; stroke-width: 2.400000035762787;" x1="62.4" x2="340.8" y1="455.2" y2="455.2"/><line style="stroke: #A80036; stroke-width: 2.400000035762787;" x1="62.4" x2="340.8" y1="468" y2="468"/><text fill="#000000" font-family="sans-serif" font-size="17.6" lengthAdjust="spacingAndGlyphs" textLength="217.6" x="70.4" y="489.6367">initialize(FeatureAccess)</text><text fill="#000000" font-family="sans-serif" font-size="17.6" lengthAdjust="spacingAndGlyphs" textLength="262.4" x="70.4" y="508.1219">String get_javascript_string()</text><text fill="#000000" font-family="sans-serif" font-size="17.6" lengthAdjust="spacingAndGlyphs" textLength="249.6" x="70.4" y="526.607">String get_javascript_path()</text><rect fill="#FEFECE" filter="url(#f1)" height="89.7797" style="stroke: #A80036; stroke-width: 2.400000035762787;" width="220.8" x="60.8" y="116.8"/><text fill="#000000" font-family="sans-serif" font-size="19.2" lengthAdjust="spacingAndGlyphs" textLength="148.8" x="101.6" y="136.6219">FeatureAccess</text><line style="stroke: #A80036; stroke-width: 2.400000035762787;" x1="62.4" x2="280" y1="143.3656" y2="143.3656"/><text fill="#000000" font-family="sans-serif" font-size="16" lengthAdjust="spacingAndGlyphs" textLength="201.6" x="70.4" y="163.6172">Array&lt;Console&gt; consoles</text><text fill="#000000" font-family="sans-serif" font-size="16" lengthAdjust="spacingAndGlyphs" textLength="129.6" x="70.4" y="180.4219">Settings settings</text><text fill="#000000" font-family="sans-serif" font-size="16" lengthAdjust="spacingAndGlyphs" textLength="158.4" x="70.4" y="197.2266">ConsolePlugin plugin</text><rect fill="#FEFECE" filter="url(#f1)" height="200.5109" style="stroke: #A80036; stroke-width: 2.400000035762787;" width="259.2" x="788.8" y="370.4"/><ellipse cx="880.4" cy="396" fill="#ADD1B2" rx="17.6" ry="17.6" style="stroke: #A80036; stroke-width: 1.600000023841858;"/><path d="M885.2,404 Q884.225,404.8 883.175,405.2 Q882.125,405.6 880.95,405.6 Q876.775,405.6 874.5875,403.1375 Q872.4,400.675 872.4,396 Q872.4,391.325 874.5875,388.8625 Q876.775,386.4 880.95,386.4 Q882.125,386.4 883.2,386.8 Q884.275,387.2 885.2,388 L885.2,392.8 Q884.225,391.15 883.3,390.375 Q882.375,389.6 881.4,389.6 Q879.325,389.6 878.2625,391.2125 Q877.2,392.825 877.2,396 Q877.2,399.175 878.2625,400.7875 Q879.325,402.4 881.4,402.4 Q882.375,402.4 883.3,401.625 Q884.225,400.85 885.2,399.2 L885.2,404 Z "/><text fill="#000000" font-family="sans-serif" font-size="19.2" lengthAdjust="spacingAndGlyphs" textLength="64" x="913.2" y="402.5391">Bridge</text><line style="stroke: #A80036; stroke-width: 2.400000035762787;" x1="790.4" x2="1046.4" y1="421.6" y2="421.6"/><text fill="#000000" font-family="sans-serif" font-size="17.6" lengthAdjust="spacingAndGlyphs" textLength="177.6" x="798.4" y="443.2367">HtmlDialog @dialog</text><line style="stroke: #A80036; stroke-width: 1.600000023841858; stroke-dasharray: 1.0,2.0;" x1="790.4" x2="1046.4" y1="452.8852" y2="452.8852"/><text fill="#000000" font-family="sans-serif" font-size="17.6" lengthAdjust="spacingAndGlyphs" textLength="217.6" x="798.4" y="474.5219">on(eventname, handler)</text><text fill="#000000" font-family="sans-serif" font-size="17.6" lengthAdjust="spacingAndGlyphs" textLength="238.4" x="798.4" y="493.007">once(eventname, handler)</text><text fill="#000000" font-family="sans-serif" font-size="17.6" lengthAdjust="spacingAndGlyphs" textLength="137.6" x="798.4" y="511.4922">off(eventname)</text><line style="stroke: #A80036; stroke-width: 1.600000023841858; stroke-dasharray: 1.0,2.0;" x1="790.4" x2="1046.4" y1="521.1406" y2="521.1406"/><text fill="#000000" font-family="sans-serif" font-size="17.6" lengthAdjust="spacingAndGlyphs" textLength="240" x="798.4" y="542.7774">call(name, *args, handler)</text><text fill="#000000" font-family="sans-serif" font-size="17.6" lengthAdjust="spacingAndGlyphs" textLength="238.4" x="798.4" y="561.2625">Promise get(name, *args)</text><rect fill="#FEFECE" filter="url(#f1)" height="52.1656" style="stroke: #A80036; stroke-width: 2.400000035762787;" width="59.2" x="1554.4" y="135.2"/><text fill="#000000" font-family="sans-serif" font-size="19.2" lengthAdjust="spacingAndGlyphs" textLength="38.4" x="1565.6" y="155.0219">app</text><line style="stroke: #A80036; stroke-width: 2.400000035762787;" x1="1556" x2="1612" y1="161.7656" y2="161.7656"/><rect fill="#FEFECE" filter="url(#f1)" height="51.2" style="stroke: #A80036; stroke-width: 2.400000035762787;" width="108.8" x="1420.8" y="444.8"/><ellipse cx="1444.8" cy="470.4" fill="#ADD1B2" rx="17.6" ry="17.6" style="stroke: #A80036; stroke-width: 1.600000023841858;"/><path d="M1449.6,478.4 Q1448.625,479.2 1447.575,479.6 Q1446.525,480 1445.35,480 Q1441.175,480 1438.9875,477.5375 Q1436.8,475.075 1436.8,470.4 Q1436.8,465.725 1438.9875,463.2625 Q1441.175,460.8 1445.35,460.8 Q1446.525,460.8 1447.6,461.2 Q1448.675,461.6 1449.6,462.4 L1449.6,467.2 Q1448.625,465.55 1447.7,464.775 Q1446.775,464 1445.8,464 Q1443.725,464 1442.6625,465.6125 Q1441.6,467.225 1441.6,470.4 Q1441.6,473.575 1442.6625,475.1875 Q1443.725,476.8 1445.8,476.8 Q1446.775,476.8 1447.7,476.025 Q1448.625,475.25 1449.6,473.6 L1449.6,478.4 Z "/><text fill="#000000" font-family="sans-serif" font-size="19.2" lengthAdjust="spacingAndGlyphs" textLength="59.2" x="1467.2" y="476.9391">Editor</text><rect fill="#FEFECE" filter="url(#f1)" height="51.2" style="stroke: #A80036; stroke-width: 2.400000035762787;" width="124.8" x="1585.6" y="444.8"/><ellipse cx="1609.6" cy="470.4" fill="#ADD1B2" rx="17.6" ry="17.6" style="stroke: #A80036; stroke-width: 1.600000023841858;"/><path d="M1614.4,478.4 Q1613.425,479.2 1612.375,479.6 Q1611.325,480 1610.15,480 Q1605.975,480 1603.7875,477.5375 Q1601.6,475.075 1601.6,470.4 Q1601.6,465.725 1603.7875,463.2625 Q1605.975,460.8 1610.15,460.8 Q1611.325,460.8 1612.4,461.2 Q1613.475,461.6 1614.4,462.4 L1614.4,467.2 Q1613.425,465.55 1612.5,464.775 Q1611.575,464 1610.6,464 Q1608.525,464 1607.4625,465.6125 Q1606.4,467.225 1606.4,470.4 Q1606.4,473.575 1607.4625,475.1875 Q1608.525,476.8 1610.6,476.8 Q1611.575,476.8 1612.5,476.025 Q1613.425,475.25 1614.4,473.6 L1614.4,478.4 Z "/><text fill="#000000" font-family="sans-serif" font-size="19.2" lengthAdjust="spacingAndGlyphs" textLength="80" x="1632" y="476.9391">Console</text><rect fill="#FEFECE" filter="url(#f1)" height="51.2" style="stroke: #A80036; stroke-width: 2.400000035762787;" width="120" x="1767.2" y="444.8"/><ellipse cx="1791.2" cy="470.4" fill="#ADD1B2" rx="17.6" ry="17.6" style="stroke: #A80036; stroke-width: 1.600000023841858;"/><path d="M1796,478.4 Q1795.025,479.2 1793.975,479.6 Q1792.925,480 1791.75,480 Q1787.575,480 1785.3875,477.5375 Q1783.2,475.075 1783.2,470.4 Q1783.2,465.725 1785.3875,463.2625 Q1787.575,460.8 1791.75,460.8 Q1792.925,460.8 1794,461.2 Q1795.075,461.6 1796,462.4 L1796,467.2 Q1795.025,465.55 1794.1,464.775 Q1793.175,464 1792.2,464 Q1790.125,464 1789.0625,465.6125 Q1788,467.225 1788,470.4 Q1788,473.575 1789.0625,475.1875 Q1790.125,476.8 1792.2,476.8 Q1793.175,476.8 1794.1,476.025 Q1795.025,475.25 1796,473.6 L1796,478.4 Z "/><text fill="#000000" font-family="sans-serif" font-size="19.2" lengthAdjust="spacingAndGlyphs" textLength="68.8" x="1813.6" y="476.9391">Output</text><rect fill="#FEFECE" filter="url(#f1)" height="51.2" style="stroke: #A80036; stroke-width: 2.400000035762787;" width="131.2" x="1755.2" y="136"/><ellipse cx="1779.2" cy="161.6" fill="#ADD1B2" rx="17.6" ry="17.6" style="stroke: #A80036; stroke-width: 1.600000023841858;"/><path d="M1784,169.6 Q1783.025,170.4 1781.975,170.8 Q1780.925,171.2 1779.75,171.2 Q1775.575,171.2 1773.3875,168.7375 Q1771.2,166.275 1771.2,161.6 Q1771.2,156.925 1773.3875,154.4625 Q1775.575,152 1779.75,152 Q1780.925,152 1782,152.4 Q1783.075,152.8 1784,153.6 L1784,158.4 Q1783.025,156.75 1782.1,155.975 Q1781.175,155.2 1780.2,155.2 Q1778.125,155.2 1777.0625,156.8125 Q1776,158.425 1776,161.6 Q1776,164.775 1777.0625,166.3875 Q1778.125,168 1780.2,168 Q1781.175,168 1782.1,167.225 Q1783.025,166.45 1784,164.8 L1784,169.6 Z "/><text fill="#000000" font-family="sans-serif" font-size="19.2" lengthAdjust="spacingAndGlyphs" textLength="83.2" x="1801.6" y="168.1391">Settings</text><rect fill="#FEFECE" filter="url(#f1)" height="106.5844" style="stroke: #A80036; stroke-width: 2.400000035762787;" width="222.4" x="1138.4" y="416.8"/><text fill="#000000" font-family="sans-serif" font-size="19.2" lengthAdjust="spacingAndGlyphs" textLength="64" x="1218.4" y="436.6219">Bridge</text><line style="stroke: #A80036; stroke-width: 2.400000035762787;" x1="1140" x2="1359.2" y1="443.3656" y2="443.3656"/><text fill="#000000" font-family="sans-serif" font-size="16" lengthAdjust="spacingAndGlyphs" textLength="200" x="1148" y="463.6172">call(name, *args, handler)</text><text fill="#000000" font-family="sans-serif" font-size="16" lengthAdjust="spacingAndGlyphs" textLength="203.2" x="1148" y="480.4219">Promise get(name, *args)</text><text fill="#000000" font-family="sans-serif" font-size="16" lengthAdjust="spacingAndGlyphs" textLength="89.6" x="1148" y="497.2266">puts(string)</text><text fill="#000000" font-family="sans-serif" font-size="16" lengthAdjust="spacingAndGlyphs" textLength="139.2" x="1148" y="514.0313">error(errorObject)</text><path d="M621.3008,251.4016 C606.7152,282.7024 590.064,318.4368 574.5344,351.7664 " fill="none" style="stroke: #A80036; stroke-width: 1.600000023841858;"/><polygon fill="#A80036" points="630.088,232.5456,620.2326,238.5449,621.9799,249.9496,631.8353,243.9503,630.088,232.5456" style="stroke: #A80036; stroke-width: 1.600000023841858;"/><text fill="#000000" font-family="sans-serif" font-size="20.8" lengthAdjust="spacingAndGlyphs" textLength="131.2" x="606.4" y="299.607">@@consoles</text><path d="M521.2576,194.6256 C461.1328,212.752 392.6832,240.0848 339.2,280 C295.304,312.76 259.1088,363.2112 234.64,403.7232 " fill="none" style="stroke: #A80036; stroke-width: 1.600000023841858;"/><polygon fill="#A80036" points="541.296,188.8272,530.2952,185.3483,522.8528,194.1648,533.8536,197.6437,541.296,188.8272" style="stroke: #A80036; stroke-width: 1.600000023841858;"/><text fill="#000000" font-family="sans-serif" font-size="20.8" lengthAdjust="spacingAndGlyphs" textLength="241.6" x="340.8" y="299.607">@@registered_features</text><path d="M293.2832,161.6 C368.72,161.6 465.5984,161.6 541.176,161.6 " fill="none" style="stroke: #A80036; stroke-width: 1.600000023841858;"/><polygon fill="#A80036" points="285.1248,161.6,299.5248,168,293.1248,161.6,299.5248,155.2,285.1248,161.6" style="stroke: #A80036; stroke-width: 1.600000023841858;"/><text fill="#000000" font-family="sans-serif" font-size="20.8" lengthAdjust="spacingAndGlyphs" textLength="196.8" x="314" y="152.407">@@feature_access</text><path d="M644.4176,470.4 C687.6192,470.4 736.3104,470.4 780.5328,470.4 " fill="none" style="stroke: #A80036; stroke-width: 1.600000023841858;"/><polygon fill="#A80036" points="788.736,470.4,774.336,464,780.736,470.4,774.336,476.8,788.736,470.4" style="stroke: #A80036; stroke-width: 1.600000023841858;"/><text fill="#000000" font-family="sans-serif" font-size="20.8" lengthAdjust="spacingAndGlyphs" textLength="84.8" x="673.2" y="461.207">@bridge</text><path d="M1565.8816,188.408 C1550.2672,211.272 1528.24,246.4368 1515.2,280 C1494.7824,332.5536 1483.9248,397.5936 1478.88,435.9968 " fill="none" style="stroke: #A80036; stroke-width: 1.600000023841858;"/><polygon fill="#A80036" points="1477.8336,444.2368,1485.9971,430.758,1478.8417,436.3006,1473.2991,429.1452,1477.8336,444.2368" style="stroke: #A80036; stroke-width: 1.600000023841858;"/><text fill="#000000" font-family="sans-serif" font-size="20.8" lengthAdjust="spacingAndGlyphs" textLength="59.2" x="1516.8" y="299.607">editor</text><path d="M1584.6928,188.352 C1585.84,216.6976 1588.8672,264.0352 1596.8,304 C1606.1568,351.1376 1623.888,403.9072 1635.824,436.7424 " fill="none" style="stroke: #A80036; stroke-width: 1.600000023841858;"/><polygon fill="#A80036" points="1638.736,444.6448,1639.7848,428.9216,1635.9806,437.1343,1627.7679,433.3302,1638.736,444.6448" style="stroke: #A80036; stroke-width: 1.600000023841858;"/><text fill="#000000" font-family="sans-serif" font-size="20.8" lengthAdjust="spacingAndGlyphs" textLength="78.4" x="1598.4" y="299.607">console</text><path d="M1606.9632,188.2224 C1628.112,211.5424 1660.112,247.5056 1686.4,280 C1730.224,334.1632 1778.096,399.8672 1805.2,437.7536 " fill="none" style="stroke: #A80036; stroke-width: 1.600000023841858;"/><polygon fill="#A80036" points="1810.016,444.4944,1806.8567,429.0562,1805.3672,437.9838,1796.4396,436.4943,1810.016,444.4944" style="stroke: #A80036; stroke-width: 1.600000023841858;"/><text fill="#000000" font-family="sans-serif" font-size="20.8" lengthAdjust="spacingAndGlyphs" textLength="67.2" x="1702.4" y="299.607">output</text><path d="M1613.984,161.6 C1647.152,161.6 1701.792,161.6 1746.592,161.6 " fill="none" style="stroke: #A80036; stroke-width: 1.600000023841858;"/><polygon fill="#A80036" points="1754.832,161.6,1740.432,155.2,1746.832,161.6,1740.432,168,1754.832,161.6" style="stroke: #A80036; stroke-width: 1.600000023841858;"/><text fill="#000000" font-family="sans-serif" font-size="20.8" lengthAdjust="spacingAndGlyphs" textLength="81.6" x="1642.8" y="152.407">settings</text><path d="M1556.7648,188.208 C1504.0688,236.5984 1386.9296,344.1632 1313.9632,411.1664 " fill="none" style="stroke: #A80036; stroke-width: 1.600000023841858;"/><polygon fill="#A80036" points="1307.9168,416.7184,1322.8514,411.6906,1313.8085,411.3066,1314.1925,402.2638,1307.9168,416.7184" style="stroke: #A80036; stroke-width: 1.600000023841858;"/><path d="M1711.008,470.4 C1726.848,470.4 1742.688,470.4 1758.544,470.4 " fill="none" style="stroke: #A80036; stroke-width: 1.600000023841858;"/><polygon fill="#A80036" points="1766.832,470.4,1752.432,464,1758.832,470.4,1752.432,476.8,1766.832,470.4" style="stroke: #A80036; stroke-width: 1.600000023841858;"/><path d="M1821.488,196.3024 C1822.784,258.2272 1825.552,390.2336 1826.688,444.616 " fill="none" style="stroke: #A80036; stroke-width: 1.600000023841858;"/><polygon fill="#A80036" points="1821.312,187.6912,1815.2146,202.2219,1821.4793,195.6895,1828.0118,201.9542,1821.312,187.6912" style="stroke: #A80036; stroke-width: 1.600000023841858;"/><path d="M1056.712,543.263 C1093.2288,548.8195 1129.7456,543.5402 1166.2624,527.4251 " fill="none" style="stroke: #A80036; stroke-width: 1.600000023841858;"/><polygon fill="#A80036" points="1173.5664,524.0576,1157.8098,524.2772,1166.3019,527.4083,1163.1708,535.9004,1173.5664,524.0576" style="stroke: #A80036; stroke-width: 1.600000023841858;"/><polygon fill="#A80036" points="1048.4,541.8112,1061.4821,550.5963,1056.2804,543.1894,1063.6873,537.9877,1048.4,541.8112" style="stroke: #A80036; stroke-width: 1.600000023841858;"/></g></svg>